<svg xmlns="http://www.w3.org/2000/svg" viewBox="0 0 126.2754 19.296"><defs><style>.cls-1,.cls-4{fill:#fff;}.cls-2{font-size:7.9307px;fill:#ff6b35;font-family:Lato-Bold, Lato;font-weight:700;}.cls-3{fill:#74c69d;}.cls-4{stroke:#ff758f;stroke-miterlimit:10;}</style></defs><g id="Layer_2" data-name="Layer 2"><g id="Layer_2-2" data-name="Layer 2"><g id="logo"><g id="app_name" data-name="app name"><path class="cls-1" d="M2.1414,5.6113V9.0056H6.44v1.705H2.1414v4.6713H0V3.9141H7.2329V5.6113Z"/><path class="cls-1" d="M15.6949,13.6212v1.7607H8.9775V3.9141h2.1334v9.7071Z"/><path class="cls-1" d="M27.0435,15.3819h-1.65a.7032.7032,0,0,1-.4519-.1388.8613.8613,0,0,1-.2617-.3449l-.8566-2.34h-4.75l-.8565,2.34a.7615.7615,0,0,1-.2459.333.686.686,0,0,1-.4521.1507H15.8532L20.3658,3.9141h2.1729Zm-3.7671-4.33L21.8806,7.2371q-.103-.2537-.2141-.6028t-.2222-.7534q-.103.4044-.2141.7574t-.2141.6146l-1.3878,3.7988Z"/><path class="cls-1" d="M34.34,6a.7371.7371,0,0,1-.2023.2419.4494.4494,0,0,1-.2656.0754.6841.6841,0,0,1-.361-.123q-.1942-.1227-.4638-.2735a3.8349,3.8349,0,0,0-.6306-.2736,2.6485,2.6485,0,0,0-.8526-.123,2.5418,2.5418,0,0,0-.7772.1072,1.63,1.63,0,0,0-.5591.2973,1.1881,1.1881,0,0,0-.337.456,1.4965,1.4965,0,0,0-.111.583,1.0136,1.0136,0,0,0,.226.6741,1.8845,1.8845,0,0,0,.5988.46,5.53,5.53,0,0,0,.8485.3411q.4758.1509.9755.3213a9.2053,9.2053,0,0,1,.9756.3964,3.3715,3.3715,0,0,1,.8485.571,2.5906,2.5906,0,0,1,.5988.8447,2.9324,2.9324,0,0,1,.226,1.2134,3.9518,3.9518,0,0,1-.2657,1.4553,3.3564,3.3564,0,0,1-.7772,1.1816,3.6591,3.6591,0,0,1-1.249.7931,4.601,4.601,0,0,1-1.6894.2894,5.4441,5.4441,0,0,1-1.0785-.107,5.6735,5.6735,0,0,1-1.019-.3052,5.441,5.441,0,0,1-.916-.476,4.401,4.401,0,0,1-.7614-.6185l.6265-1.0231a.6667.6667,0,0,1,.2062-.1864.52.52,0,0,1,.27-.0753.7565.7565,0,0,1,.4282.1626q.23.1628.5473.3608a4.2922,4.2922,0,0,0,.7416.3608,2.85,2.85,0,0,0,1.0191.1626,2.0912,2.0912,0,0,0,1.4116-.4322,1.5518,1.5518,0,0,0,.5-1.2411,1.1524,1.1524,0,0,0-.2261-.7376,1.8244,1.8244,0,0,0-.5987-.48,4.4955,4.4955,0,0,0-.8486-.3292q-.4758-.1349-.9674-.2933a8.3122,8.3122,0,0,1-.9677-.3808,3.1317,3.1317,0,0,1-.8485-.5789,2.6322,2.6322,0,0,1-.5988-.8921,3.4,3.4,0,0,1-.226-1.32,3.1715,3.1715,0,0,1,.9755-2.2762,3.5532,3.5532,0,0,1,1.1737-.7375,4.3086,4.3086,0,0,1,1.602-.2776,5.3519,5.3519,0,0,1,1.8717.3173,4.2272,4.2272,0,0,1,1.4592.8882Z"/><path class="cls-1" d="M46.6,3.9141V15.3819H44.459V10.37H39.0741v5.0122H36.9327V3.9141h2.1414V8.847H44.459V3.9141Z"/><path class="cls-1" d="M57.029,12.6775a.4255.4255,0,0,1,.3094.1349l.8406.9119a4.6166,4.6166,0,0,1-1.7169,1.3246,5.92,5.92,0,0,1-2.4466.46,5.7789,5.7789,0,0,1-2.296-.4361,5.0572,5.0572,0,0,1-1.7408-1.2134,5.3081,5.3081,0,0,1-1.1062-1.8558,6.9611,6.9611,0,0,1-.3847-2.3554A6.5541,6.5541,0,0,1,48.9,7.2806a5.4423,5.4423,0,0,1,1.1617-1.8518A5.26,5.26,0,0,1,51.85,4.22a5.9312,5.9312,0,0,1,2.3-.4323A5.6482,5.6482,0,0,1,56.3748,4.2a5.3048,5.3048,0,0,1,1.6537,1.0784l-.7139.9914a.6471.6471,0,0,1-.1626.1666.4615.4615,0,0,1-.2735.0714.5225.5225,0,0,1-.2459-.0675q-.127-.0672-.2777-.1665t-.3488-.2182a2.891,2.891,0,0,0-.46-.2179,3.7489,3.7489,0,0,0-.6067-.1667,4.1967,4.1967,0,0,0-.7971-.0673,3.5378,3.5378,0,0,0-1.4076.2735,3.0605,3.0605,0,0,0-1.0985.7932,3.6564,3.6564,0,0,0-.7138,1.2689,5.317,5.317,0,0,0-.2536,1.709,5.0228,5.0228,0,0,0,.2735,1.7209,3.7787,3.7787,0,0,0,.7415,1.2689,3.1633,3.1633,0,0,0,1.1024.7892,3.4053,3.4053,0,0,0,1.364.2736,5.9654,5.9654,0,0,0,.7892-.0476,3.3479,3.3479,0,0,0,.65-.1507,2.8811,2.8811,0,0,0,.5632-.2657,3.5207,3.5207,0,0,0,.5274-.4.7488.7488,0,0,1,.1665-.1149A.4035.4035,0,0,1,57.029,12.6775Z"/><path class="cls-1" d="M69.4724,15.3819h-1.65a.7033.7033,0,0,1-.452-.1388.8613.8613,0,0,1-.2617-.3449l-.8566-2.34h-4.75l-.8564,2.34a.7623.7623,0,0,1-.2459.333.6864.6864,0,0,1-.4521.1507H58.2821L62.7948,3.9141h2.1729Zm-3.767-4.33L64.31,7.2371q-.1031-.2537-.2141-.6028t-.2222-.7534q-.103.4044-.2141.7574t-.2141.6146l-1.3878,3.7988Z"/><path class="cls-1" d="M79.6154,15.3819H77.6882a.8453.8453,0,0,1-.793-.4282l-2.4109-3.672a.85.85,0,0,0-.2974-.2934,1.0431,1.0431,0,0,0-.48-.0873h-.9122v4.4809H70.6616V3.9141h3.4976a7.2731,7.2731,0,0,1,2.0023.2418,3.8336,3.8336,0,0,1,1.3721.6782,2.6519,2.6519,0,0,1,.7891,1.0428,3.6226,3.6226,0,0,1,.0832,2.4307,3.1644,3.1644,0,0,1-.4916.9359,3.31,3.31,0,0,1-.7931.7375,3.9744,3.9744,0,0,1-1.0746.5,2.1025,2.1025,0,0,1,.3807.2816,2.0144,2.0144,0,0,1,.3172.3846Zm-5.488-6.0114A3.3013,3.3013,0,0,0,75.1782,9.22a2.0321,2.0321,0,0,0,.7376-.4165,1.672,1.672,0,0,0,.4321-.63,2.179,2.179,0,0,0,.1428-.8011,1.6291,1.6291,0,0,0-.5749-1.34,2.7509,2.7509,0,0,0-1.7566-.4679H72.7949V9.3705Z"/><path class="cls-1" d="M91.0435,9.648a6.2029,6.2029,0,0,1-.42,2.3157A5.2,5.2,0,0,1,87.61,14.9616a6.4607,6.4607,0,0,1-2.3793.42H80.86V3.9141h4.37a6.4079,6.4079,0,0,1,2.3793.4243A5.3672,5.3672,0,0,1,89.4415,5.52a5.2807,5.2807,0,0,1,1.1817,1.8123A6.2029,6.2029,0,0,1,91.0435,9.648Zm-2.1888,0a5.336,5.336,0,0,0-.25-1.6932,3.5107,3.5107,0,0,0-.7215-1.2689,3.1521,3.1521,0,0,0-1.1421-.7971A3.9177,3.9177,0,0,0,85.23,5.6113H83.0018v8.0733H85.23a3.9121,3.9121,0,0,0,1.5109-.2775,3.1483,3.1483,0,0,0,1.1421-.797,3.5082,3.5082,0,0,0,.7215-1.2689A5.3355,5.3355,0,0,0,88.8547,9.648Z"/><path class="cls-1" d="M97.166,10.9407v4.4412H95.0405V10.9407L90.861,3.9141h1.88a.6684.6684,0,0,1,.44.1349,1.1421,1.1421,0,0,1,.2736.3409l2.0937,3.8306q.1822.3411.3213.6423t.25.6029q.1029-.3014.2379-.6029t.3093-.6423L98.7521,4.39a1.0576,1.0576,0,0,1,.2617-.3251.6554.6554,0,0,1,.4442-.1507h1.8874Z"/></g><g id="flashcards"><rect id="fc_front" data-name="fc front" class="cls-1" x="107.0302" width="11.8961" height="11.8961"/><text class="cls-2" transform="translate(111.1541 8.2339)">?</text><g id="fc_back" data-name="fc back"><rect class="cls-3" x="114.3793" y="7.3999" width="11.8961" height="11.8961"/><g id="eyes"><g id="eyeR"><rect class="cls-1" x="121.6492" y="9.3826" width="3.3045" height="3.3045"/><rect x="122.6405" y="11.3653" width="1.3218" height="1.3218"/></g><g id="eyeL"><rect class="cls-1" x="115.7011" y="9.3826" width="3.3045" height="3.3045"/><rect x="116.6925" y="11.3653" width="1.3218" height="1.3218"/></g></g><path class="cls-4" d="M117.2708,17.0116s5.948.9626,6.2784-1.3505S117.2708,17.0116,117.2708,17.0116Z"/></g></g></g></g></g></svg>