<svg xmlns="http://www.w3.org/2000/svg" viewBox="0 0 108.9561 19.296"><defs><style>.cls-1,.cls-4{fill:#fff;}.cls-2{font-size:7.9307px;fill:#ff6b35;font-family:Lato-Bold, Lato;font-weight:700;}.cls-3{fill:#74c69d;}.cls-4{stroke:#ff758f;stroke-miterlimit:10;}</style></defs><g id="Layer_2" data-name="Layer 2"><g id="Layer_2-2" data-name="Layer 2"><g id="flashcards"><rect id="fc_front" data-name="fc front" class="cls-1" x="89.7109" width="11.8961" height="11.8961"/><text class="cls-2" transform="translate(93.8347 8.234)">?</text><g id="fc_back" data-name="fc back"><rect class="cls-3" x="97.06" y="7.3999" width="11.8961" height="11.8961"/><g id="eyes"><g id="eyeR"><rect class="cls-1" x="104.3298" y="9.3826" width="3.3045" height="3.3045"/><rect x="105.3212" y="11.3653" width="1.3218" height="1.3218"/></g><g id="eyeL"><rect class="cls-1" x="98.3818" y="9.3826" width="3.3045" height="3.3045"/><rect x="99.3731" y="11.3653" width="1.3218" height="1.3218"/></g></g><path class="cls-4" d="M99.9514,17.0116s5.9481.9626,6.2785-1.3505S99.9514,17.0116,99.9514,17.0116Z"/></g></g><path class="cls-1" d="M2.43,3.74V7.5916H7.3076v1.935H2.43v5.3008H0V1.8133H8.208V3.74Z"/><path class="cls-1" d="M11.9429,1.4534v13.374H9.72V1.4534Z"/><path class="cls-1" d="M13.9492,6.8806a5.48,5.48,0,0,1,3.834-1.458,3.7522,3.7522,0,0,1,1.4492.2652,3.0661,3.0661,0,0,1,1.08.7383,3.1555,3.1555,0,0,1,.67,1.1294,4.3445,4.3445,0,0,1,.2295,1.44v5.832H20.2046a1.0192,1.0192,0,0,1-.4863-.0947.6542.6542,0,0,1-.27-.3823l-.1977-.666a8.1321,8.1321,0,0,1-.6841.5537,4.06,4.06,0,0,1-.6929.4,3.7393,3.7393,0,0,1-.77.2475,4.46,4.46,0,0,1-.9048.0855,3.5492,3.5492,0,0,1-1.08-.1577,2.3719,2.3719,0,0,1-.8549-.4722,2.1224,2.1224,0,0,1-.5577-.7832,2.7712,2.7712,0,0,1-.1982-1.0889,2.1688,2.1688,0,0,1,.1172-.6977,2.0353,2.0353,0,0,1,.3823-.6612,3.1781,3.1781,0,0,1,.6885-.5942,4.4843,4.4843,0,0,1,1.0395-.4859,8.98,8.98,0,0,1,1.4356-.3374,14.3686,14.3686,0,0,1,1.8721-.1577v-.54a2.0238,2.0238,0,0,0-.396-1.3726,1.45,1.45,0,0,0-1.1431-.4453,2.7134,2.7134,0,0,0-.8955.126,3.7212,3.7212,0,0,0-.6255.2832q-.27.1582-.4907.2837a.97.97,0,0,1-.49.126.6408.6408,0,0,1-.396-.1216,1.0177,1.0177,0,0,1-.2612-.2832Zm5.0943,4.0049a12.2277,12.2277,0,0,0-1.62.1665,4.3169,4.3169,0,0,0-1.0527.3106,1.3864,1.3864,0,0,0-.5674.4409,1.0911,1.0911,0,0,0,.1758,1.3857,1.4976,1.4976,0,0,0,.9043.252,2.6368,2.6368,0,0,0,1.1836-.2471,3.5222,3.5222,0,0,0,.9766-.7514Z"/><path class="cls-1" d="M28.9346,7.3933a.595.595,0,0,1-.189.2027.4889.4889,0,0,1-.2519.0586.7943.7943,0,0,1-.3467-.09c-.1231-.0595-.2652-.1274-.4273-.2021A3.8982,3.8982,0,0,0,27.166,7.16a2.6477,2.6477,0,0,0-.7334-.09,1.6871,1.6871,0,0,0-1.03.2788.869.869,0,0,0-.3735.729.6955.6955,0,0,0,.1934.4995,1.7381,1.7381,0,0,0,.5132.3555,4.9944,4.9944,0,0,0,.7241.2744q.405.1217.8237.2656t.8232.3287a2.8864,2.8864,0,0,1,.7247.4677,2.183,2.183,0,0,1,.5131.68,2.1576,2.1576,0,0,1,.1934.9541,3.12,3.12,0,0,1-.2383,1.2285,2.6544,2.6544,0,0,1-.7065.9717,3.324,3.324,0,0,1-1.1568.6392,5.42,5.42,0,0,1-2.52.144,5.5162,5.5162,0,0,1-.873-.2388,4.7747,4.7747,0,0,1-.774-.36,3.746,3.746,0,0,1-.6254-.45l.5131-.8457a.7229.7229,0,0,1,.2339-.2339.6537.6537,0,0,1,.3418-.0811.7217.7217,0,0,1,.3916.1167q.1847.1173.4278.252a3.791,3.791,0,0,0,.5712.2524,2.5252,2.5252,0,0,0,.8326.1167,2.1612,2.1612,0,0,0,.68-.0942,1.4354,1.4354,0,0,0,.4677-.2476.9311.9311,0,0,0,.27-.3554,1.0629,1.0629,0,0,0,.0855-.4185.7471.7471,0,0,0-.1934-.5312,1.7023,1.7023,0,0,0-.5131-.36,4.9521,4.9521,0,0,0-.7291-.2744q-.4093-.1217-.8369-.2656a7.6919,7.6919,0,0,1-.8369-.3374,2.8435,2.8435,0,0,1-.729-.4908,2.2236,2.2236,0,0,1-.5132-.729,2.5448,2.5448,0,0,1-.1933-1.0439,2.6635,2.6635,0,0,1,.2251-1.08A2.5376,2.5376,0,0,1,23.8,6.2908a3.2815,3.2815,0,0,1,1.0889-.6118,4.5412,4.5412,0,0,1,1.5073-.23,4.6176,4.6176,0,0,1,1.7373.3149,3.9144,3.9144,0,0,1,1.3047.8282Z"/><path class="cls-1" d="M33.4341,6.5833a4.8373,4.8373,0,0,1,1.188-.8189,3.4441,3.4441,0,0,1,1.521-.3149,3.313,3.313,0,0,1,1.3413.2563,2.6532,2.6532,0,0,1,.9765.72,3.1624,3.1624,0,0,1,.5938,1.1069,4.6986,4.6986,0,0,1,.2026,1.4175v5.8769H37.0342V8.9505a1.9894,1.9894,0,0,0-.3867-1.31,1.4494,1.4494,0,0,0-1.1792-.4634,2.3165,2.3165,0,0,0-1.08.2608,3.8887,3.8887,0,0,0-.9541.7109v6.6782H31.2114V1.4534h2.2227Z"/><path class="cls-1" d="M47.978,7.5467a1.0982,1.0982,0,0,1-.1933.1977.4447.4447,0,0,1-.2744.0718.6116.6116,0,0,1-.3331-.103c-.1079-.0694-.2373-.147-.3872-.2344a2.8914,2.8914,0,0,0-.5356-.2339,2.4626,2.4626,0,0,0-.769-.1035,2.354,2.354,0,0,0-1.0264.2114,1.9473,1.9473,0,0,0-.7334.6074,2.75,2.75,0,0,0-.4365.9585,5.14,5.14,0,0,0-.1441,1.274,4.9991,4.9991,0,0,0,.1577,1.3139,2.804,2.804,0,0,0,.4546.9673,1.9517,1.9517,0,0,0,.72.5942,2.1854,2.1854,0,0,0,.9541.2022,2.3653,2.3653,0,0,0,.8593-.13,2.7116,2.7116,0,0,0,.5537-.2881q.2249-.1574.3916-.288a.59.59,0,0,1,.3736-.13.4508.4508,0,0,1,.4048.207l.6391.81a4.0141,4.0141,0,0,1-.8012.7246,4.3247,4.3247,0,0,1-.8956.4678,4.5334,4.5334,0,0,1-.9541.2475,6.7215,6.7215,0,0,1-.976.0718,4.0994,4.0994,0,0,1-1.6114-.3193,3.8007,3.8007,0,0,1-1.3227-.9317,4.4417,4.4417,0,0,1-.8955-1.498,5.7847,5.7847,0,0,1-.3286-2.0205,5.8794,5.8794,0,0,1,.2924-1.8858A4.2682,4.2682,0,0,1,42.02,6.804a3.944,3.944,0,0,1,1.4043-.9946A4.8375,4.8375,0,0,1,45.35,5.45a4.5786,4.5786,0,0,1,1.8135.333,4.4338,4.4338,0,0,1,1.3994.9541Z"/><path class="cls-1" d="M49.8232,6.8806a5.48,5.48,0,0,1,3.834-1.458,3.7518,3.7518,0,0,1,1.4492.2652,3.0661,3.0661,0,0,1,1.08.7383,3.1541,3.1541,0,0,1,.67,1.1294,4.3419,4.3419,0,0,1,.2295,1.44v5.832H56.0786a1.02,1.02,0,0,1-.4863-.0947.6537.6537,0,0,1-.27-.3823l-.1978-.666a8.1321,8.1321,0,0,1-.6841.5537,4.0592,4.0592,0,0,1-.6928.4,3.7422,3.7422,0,0,1-.77.2475,4.46,4.46,0,0,1-.9048.0855,3.5481,3.5481,0,0,1-1.08-.1577,2.3715,2.3715,0,0,1-.855-.4722,2.1211,2.1211,0,0,1-.5576-.7832,2.7694,2.7694,0,0,1-.1983-1.0889,2.1688,2.1688,0,0,1,.1172-.6977,2.0353,2.0353,0,0,1,.3823-.6612,3.1781,3.1781,0,0,1,.6885-.5942,4.4832,4.4832,0,0,1,1.04-.4859,8.9764,8.9764,0,0,1,1.4355-.3374,14.3686,14.3686,0,0,1,1.8721-.1577v-.54a2.0233,2.0233,0,0,0-.396-1.3726,1.45,1.45,0,0,0-1.1431-.4453,2.7138,2.7138,0,0,0-.8955.126,3.7212,3.7212,0,0,0-.6255.2832q-.27.1582-.4907.2837a.97.97,0,0,1-.49.126.64.64,0,0,1-.396-.1216,1.02,1.02,0,0,1-.2613-.2832Zm5.0943,4.0049a12.226,12.226,0,0,0-1.62.1665,4.3165,4.3165,0,0,0-1.0528.3106,1.3871,1.3871,0,0,0-.5674.4409,1.0911,1.0911,0,0,0,.1758,1.3857,1.4978,1.4978,0,0,0,.9043.252,2.6368,2.6368,0,0,0,1.1836-.2471,3.5222,3.5222,0,0,0,.9766-.7514Z"/><path class="cls-1" d="M61.271,7.1956a3.981,3.981,0,0,1,1.0264-1.3008,2.187,2.187,0,0,1,1.4038-.4722,1.7171,1.7171,0,0,1,1.0259.2788L64.583,7.3665a.4275.4275,0,0,1-.13.2295.3616.3616,0,0,1-.23.0674,2.5811,2.5811,0,0,1-.4-.045,3.1312,3.1312,0,0,0-.5176-.0449,1.87,1.87,0,0,0-.6573.1079,1.6412,1.6412,0,0,0-.517.3106,2.1065,2.1065,0,0,0-.4053.49,4.8408,4.8408,0,0,0-.3286.6572v5.688H59.1743V5.5935H60.479a.7184.7184,0,0,1,.4771.1216.7126.7126,0,0,1,.18.4365Z"/><path class="cls-1" d="M73.6641,1.4534v13.374H72.3047a.5225.5225,0,0,1-.5576-.4048l-.189-.8911a4.669,4.669,0,0,1-1.2827,1.0347,3.4608,3.4608,0,0,1-1.6875.396,3.0561,3.0561,0,0,1-1.3862-.315,3.088,3.088,0,0,1-1.0845-.913,4.3894,4.3894,0,0,1-.7017-1.481,7.4743,7.4743,0,0,1-.2475-2.0156,6.2943,6.2943,0,0,1,.2788-1.9082A4.6369,4.6369,0,0,1,66.248,6.8a3.7336,3.7336,0,0,1,1.251-1.0127,3.6079,3.6079,0,0,1,1.6377-.3643,3.2566,3.2566,0,0,1,1.3233.2427,3.4017,3.4017,0,0,1,.9809.6572V1.4534Zm-2.2232,6.498a2.1831,2.1831,0,0,0-.8237-.6479,2.4271,2.4271,0,0,0-.9585-.189,2.123,2.123,0,0,0-.9087.189,1.8352,1.8352,0,0,0-.6934.5713,2.7552,2.7552,0,0,0-.4409.9722,5.58,5.58,0,0,0-.1528,1.3906,6.1733,6.1733,0,0,0,.13,1.3725,2.7015,2.7015,0,0,0,.3735.918,1.4234,1.4234,0,0,0,.5942.5127,1.89,1.89,0,0,0,.7828.1577,2.2761,2.2761,0,0,0,1.1791-.2881,3.5036,3.5036,0,0,0,.918-.8188Z"/><path class="cls-1" d="M84.2476,5.5935l-5.0308,11.772a.8689.8689,0,0,1-.2564.3555.786.786,0,0,1-.4819.1216H76.8228l1.728-3.708L74.8159,5.5935h1.9527a.6132.6132,0,0,1,.41.126.8058.8058,0,0,1,.2207.2881l1.9619,4.7876a4.4151,4.4151,0,0,1,.1665.4863q.0675.2432.13.4951.0813-.2518.1621-.4995t.18-.4907l1.854-4.7788a.6582.6582,0,0,1,.2388-.2974.636.636,0,0,1,.3735-.1167Z"/></g></g></svg>