<svg xmlns="http://www.w3.org/2000/svg" viewBox="0 0 382.1362 58.3937"><defs><style>.cls-1,.cls-4{fill:#fff;}.cls-2{font-size:24px;fill:#ff6b35;font-family:Lato-Bold, Lato;font-weight:700;}.cls-3{fill:#74c69d;}.cls-4{stroke:#ff758f;stroke-miterlimit:10;}</style></defs><g id="Layer_2" data-name="Layer 2"><g id="Layer_2-2" data-name="Layer 2"><g id="logo"><g id="app_name" data-name="app name"><path class="cls-1" d="M6.4805,16.981V27.253H19.4883v5.16H6.4805V46.5489H0V11.8448H21.8882V16.981Z"/><path class="cls-1" d="M47.4961,41.2208v5.3281H27.168V11.8448h6.456v29.376Z"/><path class="cls-1" d="M81.8394,46.5489H76.8472a2.1279,2.1279,0,0,1-1.3677-.42,2.6076,2.6076,0,0,1-.792-1.044l-2.5923-7.08H57.7192l-2.5918,7.08a2.3032,2.3032,0,0,1-.7441,1.0078,2.0764,2.0764,0,0,1-1.3682.4561h-5.04L61.6313,11.8448H68.207Zm-11.4-13.104-4.2242-11.544q-.312-.7675-.6479-1.8242t-.6724-2.28q-.312,1.224-.6479,2.292t-.648,1.86l-4.2,11.4961Z"/><path class="cls-1" d="M103.9189,18.1568a2.2274,2.2274,0,0,1-.6123.7319,1.3585,1.3585,0,0,1-.8037.2281,2.069,2.069,0,0,1-1.0923-.3721q-.588-.3714-1.4038-.8276a11.6014,11.6014,0,0,0-1.9082-.8282,8.0187,8.0187,0,0,0-2.58-.372,7.6942,7.6942,0,0,0-2.3521.3242,4.9322,4.9322,0,0,0-1.6919.9,3.598,3.598,0,0,0-1.02,1.38,4.53,4.53,0,0,0-.3359,1.7641,3.0678,3.0678,0,0,0,.684,2.04,5.7057,5.7057,0,0,0,1.812,1.3916,16.7678,16.7678,0,0,0,2.5679,1.0322q1.44.4563,2.9522.9722a27.8778,27.8778,0,0,1,2.9521,1.2,10.2025,10.2025,0,0,1,2.5679,1.728,7.84,7.84,0,0,1,1.812,2.5561,8.874,8.874,0,0,1,.6841,3.6719,11.9625,11.9625,0,0,1-.8042,4.4043,10.1571,10.1571,0,0,1-2.3521,3.5757,11.0673,11.0673,0,0,1-3.78,2.4,13.9173,13.9173,0,0,1-5.1123.876,16.4846,16.4846,0,0,1-3.2636-.3238,17.1633,17.1633,0,0,1-3.084-.9238,16.4553,16.4553,0,0,1-2.772-1.44,13.3346,13.3346,0,0,1-2.3042-1.8716l1.896-3.0962a2.0188,2.0188,0,0,1,.624-.5639,1.5731,1.5731,0,0,1,.8159-.2281,2.2886,2.2886,0,0,1,1.2959.4922q.6958.4922,1.6563,1.0918a12.9851,12.9851,0,0,0,2.2441,1.0918,8.6237,8.6237,0,0,0,3.084.4922,6.3293,6.3293,0,0,0,4.272-1.3081,4.6966,4.6966,0,0,0,1.5117-3.7559,3.486,3.486,0,0,0-.6841-2.2319,5.5212,5.5212,0,0,0-1.812-1.4522,13.5792,13.5792,0,0,0-2.5679-.996q-1.44-.408-2.9277-.8877a25.1339,25.1339,0,0,1-2.9282-1.1524,9.4734,9.4734,0,0,1-2.5679-1.7519,7.9641,7.9641,0,0,1-1.812-2.7,10.2908,10.2908,0,0,1-.6841-3.9961,9.6,9.6,0,0,1,2.9522-6.8882,10.7589,10.7589,0,0,1,3.5517-2.232,13.0438,13.0438,0,0,1,4.8482-.84,16.1962,16.1962,0,0,1,5.664.96,12.7943,12.7943,0,0,1,4.4161,2.6879Z"/><path class="cls-1" d="M141.0225,11.8448V46.5489h-6.48V31.3809H118.2466v15.168h-6.4805V11.8448h6.4805V26.773h16.2959V11.8448Z"/><path class="cls-1" d="M172.582,38.3648a1.2876,1.2876,0,0,1,.9361.4082l2.5439,2.76a13.9693,13.9693,0,0,1-5.1958,4.0083,17.9105,17.9105,0,0,1-7.4038,1.3916,17.4876,17.4876,0,0,1-6.9482-1.32,15.307,15.307,0,0,1-5.2681-3.6719,16.07,16.07,0,0,1-3.3477-5.6162,21.0714,21.0714,0,0,1-1.164-7.128,19.8327,19.8327,0,0,1,1.248-7.164,16.4663,16.4663,0,0,1,3.5156-5.604,15.9163,15.9163,0,0,1,5.4122-3.66,17.9488,17.9488,0,0,1,6.96-1.3081,17.0956,17.0956,0,0,1,6.732,1.248,16.0516,16.0516,0,0,1,5.0043,3.2637l-2.16,3a1.9589,1.9589,0,0,1-.4922.5044,1.3975,1.3975,0,0,1-.8276.2158,1.5792,1.5792,0,0,1-.7442-.2041q-.3844-.2035-.84-.5039t-1.0557-.66a8.7489,8.7489,0,0,0-1.3921-.66,11.3584,11.3584,0,0,0-1.8359-.5044,12.7137,12.7137,0,0,0-2.4121-.2036,10.7055,10.7055,0,0,0-4.26.8276,9.2614,9.2614,0,0,0-3.3242,2.4,11.0608,11.0608,0,0,0-2.16,3.84,16.0836,16.0836,0,0,0-.7676,5.1718,15.2089,15.2089,0,0,0,.8276,5.208,11.44,11.44,0,0,0,2.2441,3.84,9.57,9.57,0,0,0,3.336,2.3882,10.3066,10.3066,0,0,0,4.1279.8281,18.0412,18.0412,0,0,0,2.3882-.144,10.1449,10.1449,0,0,0,1.9678-.4561,8.7067,8.7067,0,0,0,1.7041-.8042,10.6355,10.6355,0,0,0,1.5962-1.2119,2.2507,2.2507,0,0,1,.5039-.3477A1.2191,1.2191,0,0,1,172.582,38.3648Z"/><path class="cls-1" d="M210.2383,46.5489h-4.9922a2.1279,2.1279,0,0,1-1.3677-.42,2.6076,2.6076,0,0,1-.792-1.044l-2.5923-7.08H186.1182l-2.5918,7.08a2.3043,2.3043,0,0,1-.7442,1.0078,2.0761,2.0761,0,0,1-1.3681.4561h-5.04L190.03,11.8448h6.5757Zm-11.4-13.104-4.2241-11.544q-.3121-.7675-.648-1.8242t-.6724-2.28q-.312,1.224-.6479,2.292t-.648,1.86l-4.2,11.4961Z"/><path class="cls-1" d="M240.9331,46.5489h-5.832a2.5578,2.5578,0,0,1-2.4-1.2959l-7.2959-11.1123a2.5733,2.5733,0,0,0-.9-.8877,3.1578,3.1578,0,0,0-1.4522-.2642h-2.76v13.56h-6.4561V11.8448h10.5845a22.0112,22.0112,0,0,1,6.06.7319,11.6027,11.6027,0,0,1,4.1523,2.0523,8.0283,8.0283,0,0,1,2.3877,3.1557,10.9637,10.9637,0,0,1,.2519,7.356,9.58,9.58,0,0,1-1.4877,2.832,10.0153,10.0153,0,0,1-2.4,2.232,12.03,12.03,0,0,1-3.252,1.5122,6.3578,6.3578,0,0,1,1.1519.852,6.0869,6.0869,0,0,1,.96,1.1641ZM224.3252,28.357a9.99,9.99,0,0,0,3.18-.4561,6.1443,6.1443,0,0,0,2.2319-1.26,5.0587,5.0587,0,0,0,1.3076-1.9077,6.5951,6.5951,0,0,0,.4322-2.4243,4.9294,4.9294,0,0,0-1.74-4.0557,8.3248,8.3248,0,0,0-5.3159-1.416H220.293v11.52Z"/><path class="cls-1" d="M275.5171,29.1968a18.77,18.77,0,0,1-1.272,7.0079,15.7375,15.7375,0,0,1-9.12,9.0722,19.5473,19.5473,0,0,1-7.2,1.272H244.7007V11.8448h13.2241a19.3887,19.3887,0,0,1,7.2,1.2842,16.2366,16.2366,0,0,1,5.5439,3.5757,15.9817,15.9817,0,0,1,3.5762,5.4843A18.772,18.772,0,0,1,275.5171,29.1968Zm-6.624,0a16.15,16.15,0,0,0-.7564-5.124,10.6206,10.6206,0,0,0-2.1836-3.84,9.5349,9.5349,0,0,0-3.456-2.4121,11.852,11.852,0,0,0-4.5723-.84h-6.7436V41.4127h6.7436a11.8427,11.8427,0,0,0,4.5723-.84,9.5252,9.5252,0,0,0,3.456-2.4121,10.6131,10.6131,0,0,0,2.1836-3.84A16.1484,16.1484,0,0,0,268.8931,29.1968Z"/><path class="cls-1" d="M294.0449,33.1089v13.44h-6.4321v-13.44l-12.648-21.2641h5.688a2.0233,2.0233,0,0,1,1.3321.4082,3.4581,3.4581,0,0,1,.8281,1.0317l6.3359,11.5923q.5515,1.032.9722,1.9439.4189.9126.7559,1.8242.3112-.9119.72-1.8242t.936-1.9439l6.312-11.5923a3.2112,3.2112,0,0,1,.792-.9839,1.9843,1.9843,0,0,1,1.3443-.456h5.7119Z"/></g><g id="flashcards"><rect id="fc_front" data-name="fc front" class="cls-1" x="323.8962" width="36" height="36"/><text class="cls-2" transform="translate(336.3762 24.9177)">?</text><g id="fc_back" data-name="fc back"><rect class="cls-3" x="346.1362" y="22.3937" width="36" height="36"/><g id="eyes"><g id="eyeR"><rect class="cls-1" x="368.1362" y="28.3937" width="10" height="10"/><rect x="371.1362" y="34.3937" width="4" height="4"/></g><g id="eyeL"><rect class="cls-1" x="350.1362" y="28.3937" width="10" height="10"/><rect x="353.1362" y="34.3937" width="4" height="4"/></g></g><path class="cls-4" d="M354.8862,51.4806s18,2.9131,19-4.0869S354.8862,51.4806,354.8862,51.4806Z"/></g></g></g></g></g></svg>