<svg xmlns="http://www.w3.org/2000/svg" xmlns:xlink="http://www.w3.org/1999/xlink" width="189.381" height="28.939" viewBox="0 0 189.381 28.939">
  <defs>
    <clipPath id="clip-path">
      <rect id="Rectangle_26" data-name="Rectangle 26" width="189.382" height="28.939" fill="none"/>
    </clipPath>
  </defs>
  <g id="Group_11" data-name="Group 11" transform="translate(0 0)">
    <path id="Path_13" data-name="Path 13" d="M0,11.845v17.2H3.212V22.038H9.658V19.481H3.212V14.39h7.636V11.845Z" transform="translate(0 -5.975)" fill="#fff"/>
    <path id="Path_14" data-name="Path 14" d="M37.242,26.4v2.64H27.168v-17.2h3.2V26.4Z" transform="translate(-13.704 -5.975)" fill="#fff"/>
    <g id="Group_10" data-name="Group 10" transform="translate(0 0)">
      <g id="Group_9" data-name="Group 9" clip-path="url(#clip-path)">
        <path id="Path_15" data-name="Path 15" d="M64.758,29.044H62.284a1.056,1.056,0,0,1-.678-.208,1.292,1.292,0,0,1-.393-.517L59.929,24.81H52.8l-1.285,3.509a1.14,1.14,0,0,1-.369.5,1.029,1.029,0,0,1-.678.226h-2.5l6.768-17.2H58Zm-5.65-6.494-2.093-5.721q-.155-.381-.321-.9t-.333-1.13q-.155.607-.321,1.136t-.321.922l-2.081,5.7Z" transform="translate(-24.199 -5.975)" fill="#fff"/>
        <path id="Path_16" data-name="Path 16" d="M93.205,14.779a1.1,1.1,0,0,1-.3.363.675.675,0,0,1-.4.113,1.027,1.027,0,0,1-.541-.184q-.291-.184-.7-.41a5.791,5.791,0,0,0-.946-.41,3.974,3.974,0,0,0-1.279-.184,3.817,3.817,0,0,0-1.166.161,2.448,2.448,0,0,0-.839.446,1.782,1.782,0,0,0-.505.684,2.247,2.247,0,0,0-.167.874,1.52,1.52,0,0,0,.339,1.011,2.825,2.825,0,0,0,.9.69,8.334,8.334,0,0,0,1.273.511q.714.226,1.463.482a13.78,13.78,0,0,1,1.463.595,5.058,5.058,0,0,1,1.273.856,3.881,3.881,0,0,1,.9,1.267,4.4,4.4,0,0,1,.339,1.82,5.929,5.929,0,0,1-.4,2.183,5.035,5.035,0,0,1-1.166,1.772,5.49,5.49,0,0,1-1.873,1.189,6.9,6.9,0,0,1-2.533.434,8.169,8.169,0,0,1-1.618-.161,8.515,8.515,0,0,1-1.528-.458,8.188,8.188,0,0,1-1.374-.714,6.623,6.623,0,0,1-1.142-.928l.94-1.534a.992.992,0,0,1,.309-.28.779.779,0,0,1,.4-.113,1.135,1.135,0,0,1,.642.244q.344.244.821.541a6.442,6.442,0,0,0,1.112.541,4.274,4.274,0,0,0,1.528.244,3.136,3.136,0,0,0,2.117-.648,2.328,2.328,0,0,0,.749-1.861,1.728,1.728,0,0,0-.339-1.106,2.737,2.737,0,0,0-.9-.72,6.705,6.705,0,0,0-1.273-.494q-.714-.2-1.451-.44a12.479,12.479,0,0,1-1.451-.571,4.7,4.7,0,0,1-1.273-.868,3.944,3.944,0,0,1-.9-1.338,5.1,5.1,0,0,1-.339-1.98,4.759,4.759,0,0,1,1.463-3.414,5.327,5.327,0,0,1,1.76-1.106,6.463,6.463,0,0,1,2.4-.416,8.034,8.034,0,0,1,2.807.476A6.337,6.337,0,0,1,94,13.269Z" transform="translate(-41.704 -5.781)" fill="#fff"/>
        <path id="Path_17" data-name="Path 17" d="M126.265,11.845v17.2h-3.211V21.527h-8.076v7.517h-3.211v-17.2h3.211v7.4h8.076v-7.4Z" transform="translate(-56.377 -5.975)" fill="#fff"/>
        <path id="Path_18" data-name="Path 18" d="M159.544,24.794a.638.638,0,0,1,.464.2l1.261,1.368a6.919,6.919,0,0,1-2.575,1.986,8.874,8.874,0,0,1-3.669.69,8.671,8.671,0,0,1-3.443-.654,7.582,7.582,0,0,1-2.611-1.82,7.967,7.967,0,0,1-1.659-2.783,10.447,10.447,0,0,1-.577-3.533,9.833,9.833,0,0,1,.618-3.55,8.16,8.16,0,0,1,1.742-2.777,7.886,7.886,0,0,1,2.682-1.814,8.9,8.9,0,0,1,3.449-.648,8.472,8.472,0,0,1,3.336.618,7.948,7.948,0,0,1,2.48,1.618l-1.07,1.487a.971.971,0,0,1-.244.25.691.691,0,0,1-.41.107.785.785,0,0,1-.369-.1q-.19-.1-.416-.25t-.523-.327a4.308,4.308,0,0,0-.69-.327,5.631,5.631,0,0,0-.91-.25,6.286,6.286,0,0,0-1.2-.1,5.3,5.3,0,0,0-2.111.41,4.588,4.588,0,0,0-1.647,1.189,5.483,5.483,0,0,0-1.07,1.9A7.975,7.975,0,0,0,150,20.251a7.534,7.534,0,0,0,.41,2.581,5.67,5.67,0,0,0,1.112,1.9,4.749,4.749,0,0,0,1.653,1.183,5.11,5.11,0,0,0,2.046.41,8.911,8.911,0,0,0,1.183-.071,5.024,5.024,0,0,0,.975-.226,4.3,4.3,0,0,0,.844-.4,5.276,5.276,0,0,0,.791-.6,1.128,1.128,0,0,1,.25-.172.6.6,0,0,1,.274-.065" transform="translate(-74.015 -5.781)" fill="#fff"/>
        <path id="Path_19" data-name="Path 19" d="M193.157,29.044h-2.474a1.056,1.056,0,0,1-.678-.208,1.292,1.292,0,0,1-.393-.517l-1.285-3.509H181.2l-1.285,3.509a1.14,1.14,0,0,1-.369.5,1.029,1.029,0,0,1-.678.226h-2.5l6.768-17.2H186.4Zm-5.65-6.494-2.093-5.721q-.155-.381-.321-.9t-.333-1.13q-.155.607-.321,1.136t-.321.922l-2.081,5.7Z" transform="translate(-88.965 -5.975)" fill="#fff"/>
        <path id="Path_20" data-name="Path 20" d="M227.265,29.044h-2.89a1.268,1.268,0,0,1-1.189-.642l-3.616-5.507a1.269,1.269,0,0,0-.446-.44,1.563,1.563,0,0,0-.72-.131h-1.368v6.72h-3.2v-17.2h5.245a10.9,10.9,0,0,1,3,.363,5.745,5.745,0,0,1,2.058,1.017,3.978,3.978,0,0,1,1.183,1.564,5.435,5.435,0,0,1,.125,3.646,4.75,4.75,0,0,1-.737,1.4,4.97,4.97,0,0,1-1.189,1.106,5.965,5.965,0,0,1-1.612.749,3.128,3.128,0,0,1,.571.422,3,3,0,0,1,.476.577Zm-8.231-9.016a4.952,4.952,0,0,0,1.576-.226,3.051,3.051,0,0,0,1.106-.624,2.508,2.508,0,0,0,.648-.946,3.269,3.269,0,0,0,.214-1.2,2.443,2.443,0,0,0-.862-2.01,4.126,4.126,0,0,0-2.635-.7h-2.046v5.709Z" transform="translate(-107.862 -5.975)" fill="#fff"/>
        <path id="Path_21" data-name="Path 21" d="M259.973,20.444a9.3,9.3,0,0,1-.63,3.473,7.8,7.8,0,0,1-4.52,4.5,9.689,9.689,0,0,1-3.568.63H244.7v-17.2h6.554a9.608,9.608,0,0,1,3.568.636,8.044,8.044,0,0,1,2.748,1.772,7.922,7.922,0,0,1,1.772,2.718,9.3,9.3,0,0,1,.63,3.473m-3.283,0a8.009,8.009,0,0,0-.375-2.539,5.263,5.263,0,0,0-1.082-1.9,4.722,4.722,0,0,0-1.713-1.2,5.874,5.874,0,0,0-2.266-.416h-3.342V26.5h3.342a5.865,5.865,0,0,0,2.266-.416,4.722,4.722,0,0,0,1.713-1.2,5.258,5.258,0,0,0,1.082-1.9,8.009,8.009,0,0,0,.375-2.539" transform="translate(-123.43 -5.975)" fill="#fff"/>
        <path id="Path_22" data-name="Path 22" d="M284.421,22.383v6.661h-3.188V22.383l-6.268-10.538h2.819a1,1,0,0,1,.66.2,1.711,1.711,0,0,1,.41.511l3.14,5.745q.274.511.482.963t.375.9q.155-.452.357-.9t.464-.963l3.128-5.745a1.589,1.589,0,0,1,.392-.488.983.983,0,0,1,.666-.226h2.831Z" transform="translate(-138.696 -5.975)" fill="#fff"/>
        <rect id="Rectangle_20" data-name="Rectangle 20" width="17.841" height="17.841" transform="translate(160.519 0)" fill="#fff"/>
        <text id="_" data-name="?" transform="translate(166.703 11.933)" fill="#ff6b35" font-size="11" font-family="Lato-Bold, Lato" font-weight="700"><tspan x="0" y="0">?</tspan></text>
        <rect id="Rectangle_21" data-name="Rectangle 21" width="17.841" height="17.841" transform="translate(171.54 11.098)" fill="#74c69d"/>
        <rect id="Rectangle_22" data-name="Rectangle 22" width="4.956" height="4.956" transform="translate(182.443 14.072)" fill="#fff"/>
        <rect id="Rectangle_23" data-name="Rectangle 23" width="1.982" height="1.982" transform="translate(183.93 17.045)"/>
        <rect id="Rectangle_24" data-name="Rectangle 24" width="4.956" height="4.956" transform="translate(173.523 14.072)" fill="#fff"/>
        <rect id="Rectangle_25" data-name="Rectangle 25" width="1.982" height="1.982" transform="translate(175.009 17.045)"/>
        <path id="Path_23" data-name="Path 23" d="M354.886,48.25s8.921,1.444,9.416-2.025-9.416,2.025-9.416,2.025" transform="translate(-179.009 -22.737)" fill="#fff"/>
        <path id="Path_24" data-name="Path 24" d="M354.886,48.25s8.921,1.444,9.416-2.025S354.886,48.25,354.886,48.25Z" transform="translate(-179.009 -22.737)" fill="none" stroke="#ff758f" stroke-miterlimit="10" stroke-width="1"/>
      </g>
    </g>
  </g>
</svg>
